<?xml version="1.0" standalone="no"?>
<!DOCTYPE svg PUBLIC "-//W3C//DTD SVG 20010904//EN"
 "http://www.w3.org/TR/2001/REC-SVG-20010904/DTD/svg10.dtd">
<svg version="1.0" xmlns="http://www.w3.org/2000/svg"
 width="1024.000000pt" height="1024.000000pt" viewBox="0 0 1024.000000 1024.000000"
 preserveAspectRatio="xMidYMid meet">

<g transform="translate(0.000000,1024.000000) scale(0.100000,-0.100000)"
fill="#000000" stroke="none">
<path d="M4790 8664 c-442 -47 -808 -153 -1181 -340 -327 -164 -706 -460 -962
-752 -426 -486 -679 -1019 -781 -1642 -123 -750 11 -1540 364 -2157 169 -294
320 -493 545 -718 318 -319 705 -583 1073 -734 316 -129 663 -212 1009 -242
201 -17 589 -7 758 19 383 60 670 149 985 306 362 181 657 401 976 728 203
209 234 251 234 321 0 55 -26 109 -68 143 -15 11 -128 91 -252 176 -795 548
-1017 702 -1029 714 -12 11 -9 20 17 61 47 74 117 219 150 313 158 451 101
956 -152 1350 -27 42 -32 58 -23 66 7 7 129 92 272 190 568 388 1001 688 1028
713 42 38 57 73 57 134 0 72 -21 101 -229 308 -446 444 -903 733 -1427 902
-223 72 -497 128 -719 147 -163 13 -493 11 -645 -6z m622 -379 c394 -38 773
-150 1118 -331 221 -116 499 -322 724 -535 l88 -84 -128 -87 c-71 -47 -329
-222 -573 -387 l-443 -301 -52 46 c-124 113 -355 237 -541 292 -181 53 -281
67 -485 66 -207 -1 -311 -17 -496 -79 -535 -178 -936 -637 -1051 -1202 -28
-135 -25 -473 5 -606 159 -715 724 -1219 1429 -1277 409 -33 799 89 1121 351
45 37 77 57 85 52 7 -4 93 -64 192 -133 156 -109 696 -485 868 -604 31 -22 57
-43 57 -47 0 -13 -222 -219 -328 -304 -436 -350 -887 -547 -1457 -636 -186
-30 -592 -32 -785 -6 -167 24 -349 62 -493 103 -639 186 -1218 622 -1608 1211
-252 381 -410 841 -459 1332 -13 133 -13 430 0 562 65 656 344 1254 804 1728
247 254 506 440 831 597 490 237 1026 332 1577 279z m-2 -1724 c425 -97 766
-415 884 -823 40 -139 50 -205 50 -348 0 -329 -120 -625 -344 -851 -176 -177
-388 -291 -640 -345 -117 -25 -344 -25 -460 -1 -539 115 -916 538 -972 1089
-48 471 209 948 628 1165 101 53 264 108 375 128 116 20 363 13 479 -14z"/>
<path d="M729 1141 c-24 -24 -29 -38 -29 -75 0 -44 -1 -46 -30 -46 -25 0 -30
-4 -30 -25 0 -21 5 -25 30 -25 l30 0 0 -165 0 -165 30 0 30 0 0 165 0 165 40
0 c36 0 40 3 40 25 0 23 -4 25 -43 25 l-43 0 4 38 c6 49 18 62 58 62 30 0 34
3 34 25 0 23 -4 25 -46 25 -37 0 -51 -5 -75 -29z"/>
<path d="M1660 1150 c-28 -28 -11 -63 28 -58 30 3 42 39 22 64 -17 19 -26 18
-50 -6z"/>
<path d="M974 1006 c-32 -14 -64 -51 -64 -73 0 -22 48 -14 74 12 18 18 36 25
64 25 50 0 81 -25 88 -71 l6 -36 -75 -6 c-118 -10 -162 -34 -173 -92 -9 -51
19 -100 69 -120 49 -20 91 -14 141 20 l36 24 0 -24 c0 -20 5 -25 25 -25 l25 0
0 153 c0 167 -5 183 -60 212 -36 19 -114 19 -156 1z m166 -216 c0 -54 -57
-110 -113 -110 -33 0 -77 37 -77 64 0 45 38 63 133 65 51 1 57 -1 57 -19z"/>
<path d="M1250 1018 c0 -2 31 -86 69 -188 l68 -185 36 -3 c22 -2 37 1 37 8 0
6 29 90 65 186 36 97 65 177 65 180 0 2 -13 4 -29 4 -34 0 -28 10 -92 -180
-26 -79 -50 -138 -53 -130 -4 8 -28 80 -54 160 -48 144 -49 145 -80 148 -18 2
-32 2 -32 0z"/>
<path d="M1660 831 l0 -191 28 0 27 0 -2 187 -2 188 -25 3 -26 3 0 -190z"/>
<path d="M1882 1003 c-43 -21 -69 -59 -83 -120 -24 -102 11 -190 91 -230 54
-28 92 -29 147 -3 40 18 83 68 83 98 0 25 -44 11 -74 -24 -26 -30 -39 -37 -72
-38 -82 -2 -131 64 -121 161 6 59 26 95 63 111 46 22 83 15 121 -23 31 -31 83
-48 83 -27 0 19 -43 74 -72 92 -41 25 -120 26 -166 3z"/>
<path d="M2275 1007 c-61 -29 -95 -94 -95 -185 0 -73 32 -138 81 -167 46 -27
132 -27 178 0 104 61 109 266 9 339 -35 25 -131 32 -173 13z m139 -58 c15 -12
32 -33 37 -48 16 -40 12 -126 -6 -161 -36 -70 -144 -75 -185 -7 -24 39 -27
135 -5 177 32 61 107 80 159 39z"/>
<path d="M2600 830 l0 -190 30 0 30 0 0 125 c0 70 5 135 11 149 17 36 68 60
112 52 60 -11 67 -31 67 -188 l0 -138 30 0 30 0 0 135 c0 183 -21 230 -109
242 -53 7 -82 -1 -114 -33 l-27 -27 0 32 c0 28 -3 31 -30 31 l-30 0 0 -190z"/>
<path d="M3239 997 c-64 -43 -75 -115 -23 -156 13 -10 56 -27 94 -36 103 -25
128 -61 73 -105 -38 -30 -108 -23 -140 14 -13 15 -32 26 -48 26 -30 0 -31 -5
-6 -46 26 -42 94 -69 153 -60 89 13 136 65 123 134 -8 41 -43 64 -133 87 -77
19 -92 29 -92 61 0 31 36 54 86 54 33 0 47 -5 62 -25 12 -15 30 -25 46 -25 30
0 33 15 10 48 -38 55 -144 70 -205 29z"/>
<path d="M3510 1013 c0 -4 30 -90 67 -190 l66 -183 34 0 c18 0 33 1 33 3 0 2
29 83 65 181 36 98 65 182 65 187 0 5 -12 9 -28 9 -27 0 -29 -5 -81 -161 -29
-88 -54 -159 -56 -157 -2 2 -27 74 -55 161 -51 156 -51 157 -80 157 -17 0 -30
-3 -30 -7z"/>
<path d="M3963 1000 c-48 -29 -73 -86 -73 -167 0 -80 20 -126 71 -161 48 -34
127 -27 169 13 l30 29 0 -47 c0 -85 -35 -122 -116 -122 -30 0 -49 6 -66 23
-23 21 -78 31 -78 14 0 -17 33 -53 63 -69 43 -22 132 -21 181 2 67 32 76 65
76 303 l0 203 -27 -3 c-23 -2 -28 -8 -28 -30 1 -16 -3 -28 -7 -28 -4 0 -8 5
-8 10 0 6 -15 19 -32 30 -43 26 -113 26 -155 0z m145 -46 c33 -23 52 -67 52
-119 0 -81 -43 -135 -108 -135 -43 0 -68 14 -86 48 -35 68 -27 152 19 198 29
28 88 32 123 8z"/>
<path d="M3020 706 c-6 -8 -10 -25 -8 -38 2 -19 9 -23 38 -23 31 0 35 3 38 29
5 42 -41 64 -68 32z"/>
</g>
</svg>
